<svg width="128" height="128" viewBox="0 0 128 128" fill="none" xmlns="http://www.w3.org/2000/svg">
<g clip-path="url(#clip0_2002_771)">
<path d="M0 32C0 14.3269 14.3269 0 32 0H96C113.673 0 128 14.3269 128 32V96C128 113.673 113.673 128 96 128H32C14.3269 128 0 113.673 0 96V32Z" fill="#16C645"/>
<g filter="url(#filter0_d_2002_771)">
<path d="M85.0844 39.5041V28.7468H75.0956C73.1859 28.7468 71.6377 27.1987 71.6377 25.289C71.6377 23.3793 73.1859 21.8312 75.0956 21.8312H92V39.5041C92 41.4138 90.4518 42.962 88.5422 42.962C86.6326 42.9619 85.0844 41.4137 85.0844 39.5041Z" fill="white"/>
<path d="M93 20.8312V39.504C93 41.8891 91.1269 43.8368 88.7715 43.9562L88.542 43.962C86.0803 43.9619 84.084 41.9659 84.084 39.504V29.7472H75.0957C72.6338 29.7472 70.6378 27.751 70.6377 25.2892C70.6377 22.8272 72.6338 20.8312 75.0957 20.8312H93Z" stroke="white" stroke-width="2"/>
</g>
<g filter="url(#filter1_d_2002_771)">
<path d="M62.0329 28.7467C63.9426 28.7467 65.4907 30.2948 65.4907 32.2045C65.4907 34.1142 63.9426 35.6623 62.0329 35.6623C58.2786 35.6623 54.6061 36.7409 51.4507 38.7658L51.1468 38.9644C48.0255 41.0501 45.5715 43.9874 44.0729 47.4238L43.9307 47.758C42.4477 51.3382 42.0595 55.2777 42.8154 59.0784L42.8895 59.4344C43.6889 63.0972 45.5235 66.4564 48.1781 69.111L48.4373 69.3652C51.137 71.9666 54.5286 73.7412 58.2106 74.4736L58.5667 74.541C62.2568 75.2042 66.0625 74.795 69.531 73.3583L69.8652 73.2161C73.3017 71.7175 76.2389 69.2636 78.3246 66.1422L78.5232 65.8383C80.5481 62.6829 81.6267 59.0104 81.6267 55.2561C81.6267 53.3465 83.1749 51.7983 85.0845 51.7983C86.9942 51.7983 88.5423 53.3465 88.5423 55.2561C88.5423 60.3353 87.0833 65.3041 84.3438 69.5731L84.0744 69.9838C81.2526 74.2071 77.279 77.5276 72.6295 79.5551L72.1774 79.7479C67.4849 81.6916 62.336 82.2445 57.3436 81.3472L56.8613 81.2563C51.8797 80.2654 47.2911 77.8646 43.6386 74.3448L43.2876 74.0014C39.696 70.4098 37.2144 65.8642 36.1329 60.9083L36.0327 60.4277C35.0099 55.2855 35.5348 49.9554 37.5411 45.1116L37.7339 44.6596C39.7614 40.0101 43.082 36.0364 47.3052 33.2146L47.7159 32.9452C51.9849 30.2058 56.9537 28.7467 62.0329 28.7467Z" fill="white"/>
<path d="M62.2626 27.7525C64.6178 27.8721 66.4911 29.8198 66.4911 32.2047C66.4911 34.5895 64.6178 36.5373 62.2626 36.6568L62.0331 36.6627C58.4732 36.6627 54.9898 37.6834 51.997 39.6021L51.998 39.6031L51.6943 39.8014L51.6933 39.8004C48.7353 41.7792 46.41 44.5658 44.9892 47.8238L44.8505 48.15C43.4476 51.5422 43.0795 55.2739 43.7939 58.8746H43.7949L43.8661 59.2213L44.0204 59.8697C44.8452 63.0898 46.52 66.0366 48.8779 68.3971L49.1376 68.651H49.1367C51.6968 71.1159 54.9122 72.7969 58.4023 73.4918L58.7529 73.5582H58.7519C62.251 74.1855 65.8594 73.7965 69.1484 72.4342L69.4736 72.2955C72.7312 70.873 75.5156 68.546 77.4931 65.5865L77.6816 65.2984C79.6031 62.3042 80.6268 58.819 80.6269 55.2564L80.6328 55.0269C80.7521 52.6715 82.6999 50.7985 85.0849 50.7984L85.3144 50.8043C87.6695 50.9239 89.5419 52.8716 89.5419 55.2564L89.538 55.7496C89.4466 60.8482 87.9394 65.8213 85.1855 70.1129L85.1796 70.1217L84.9111 70.5318L84.9062 70.5396C81.9779 74.9222 77.8541 78.3682 73.0292 80.4723L73.0214 80.4752L72.5693 80.6676L72.5605 80.6715C67.6909 82.6885 62.3475 83.2627 57.1669 82.3316L57.1581 82.3297L56.6757 82.2389L56.666 82.2369C51.4964 81.2086 46.7345 78.7174 42.9443 75.065L42.9394 75.0592L42.5878 74.7164L42.58 74.7086C38.9694 71.0979 36.4404 66.5579 35.2656 61.6021L35.1562 61.1217L35.1542 61.1119L35.0536 60.6314L35.0517 60.6227C33.9904 55.2866 34.5352 49.7556 36.6171 44.7291L36.621 44.7193L36.8144 44.2672L36.8173 44.2594L37.0185 43.8092C39.1376 39.1782 42.5045 35.2201 46.7499 32.3834L46.7568 32.3785L47.1679 32.109L47.1757 32.1031L47.5937 31.8414C51.9286 29.1681 56.9271 27.7467 62.0331 27.7467L62.2626 27.7525Z" stroke="white" stroke-width="2"/>
</g>
<g filter="url(#filter2_d_2002_771)">
<path d="M38.597 83.6865C38.597 81.7769 40.1452 80.2287 42.0549 80.2287C43.9645 80.2287 45.5127 81.7769 45.5127 83.6865C45.5127 85.856 45.94 88.0044 46.7702 90.0088L46.9302 90.3825C47.7535 92.2395 48.9129 93.93 50.351 95.368L50.6422 95.6517C52.1137 97.0526 53.8319 98.1712 55.7111 98.9496L56.0882 99.1003C57.9837 99.8313 59.9994 100.207 62.0333 100.207C64.2025 100.207 66.3506 99.7797 68.3547 98.9496L68.7284 98.7888C70.5857 97.9654 72.2766 96.8062 73.7148 95.368L73.9985 95.0768C75.3991 93.6055 76.5173 91.8877 77.2956 90.0088L77.4471 89.6308C78.178 87.7354 78.5531 85.7203 78.5531 83.6865C78.5531 81.7769 80.1013 80.2288 82.0109 80.2287C83.9206 80.2287 85.4687 81.7769 85.4687 83.6865C85.4687 86.5719 84.936 89.4308 83.8989 92.1198L83.6851 92.6551C82.581 95.3207 80.9946 97.7579 79.0076 99.8452L78.6044 100.258C76.5643 102.299 74.166 103.943 71.5314 105.111L71.0011 105.338C68.1579 106.516 65.1107 107.122 62.0333 107.122C59.148 107.122 56.289 106.589 53.6 105.552L53.0647 105.338C50.399 104.234 47.9612 102.648 45.8738 100.661L45.4613 100.258C43.4212 98.2183 41.776 95.82 40.6079 93.1854L40.3807 92.6551C39.2029 89.8118 38.597 86.7641 38.597 83.6865Z" fill="white"/>
<path d="M82.2406 79.2346C84.5958 79.3541 86.4691 81.3018 86.4691 83.6867C86.4691 86.6951 85.9137 89.676 84.8324 92.4797L84.8275 92.4904L84.6136 93.0256L84.6088 93.0383C83.4576 95.8174 81.8034 98.3581 79.7318 100.534L79.723 100.543L79.3207 100.957L79.3119 100.966C77.1846 103.093 74.6838 104.808 71.9369 106.026L71.9252 106.03L71.3949 106.257L71.3842 106.262C68.6048 107.413 65.6381 108.041 62.6342 108.114L62.0336 108.122C59.0253 108.122 56.0442 107.567 53.2406 106.486L53.2289 106.481L52.6937 106.267L52.682 106.262C49.9026 105.111 47.3605 103.457 45.184 101.385L45.1752 101.377L44.7631 100.975L44.7543 100.966C42.6272 98.8389 40.9117 96.338 39.6937 93.591L39.6888 93.5793L39.4613 93.049L39.4564 93.0383C38.2284 90.0736 37.5971 86.8955 37.597 83.6867C37.597 81.2248 39.5931 79.2287 42.0551 79.2287C44.5169 79.2288 46.5131 81.2248 46.5131 83.6867C46.5131 85.721 46.9128 87.7355 47.6898 89.6154L47.8441 89.9767L47.9935 90.3029C48.7535 91.9155 49.7862 93.3872 51.0482 94.6516L51.3314 94.9269L51.5931 95.1711C52.9131 96.371 54.4317 97.3354 56.0824 98.0207L56.4476 98.1672L56.7836 98.2922C58.4659 98.8968 60.2423 99.2072 62.0336 99.2072L62.4154 99.2023C64.196 99.1584 65.9557 98.8081 67.6176 98.1672L67.972 98.0256L68.3236 97.8742L68.6488 97.7258C70.262 96.9656 71.734 95.9324 72.9984 94.6701L73.2738 94.3869L73.5179 94.1252C74.7201 92.8025 75.686 91.2808 76.3715 89.6262L76.514 89.2707C77.2006 87.4903 77.5531 85.5973 77.5531 83.6867C77.5531 81.2248 79.5493 79.2288 82.0111 79.2287L82.2406 79.2346Z" stroke="white" stroke-width="2"/>
</g>
</g>
<defs>
<filter id="filter0_d_2002_771" x="48.3377" y="2.53118" width="66.9623" height="67.7308" filterUnits="userSpaceOnUse" color-interpolation-filters="sRGB">
<feFlood flood-opacity="0" result="BackgroundImageFix"/>
<feColorMatrix in="SourceAlpha" type="matrix" values="0 0 0 0 0 0 0 0 0 0 0 0 0 0 0 0 0 0 127 0" result="hardAlpha"/>
<feOffset dy="4"/>
<feGaussianBlur stdDeviation="10.65"/>
<feComposite in2="hardAlpha" operator="out"/>
<feColorMatrix type="matrix" values="0 0 0 0 0 0 0 0 0 0 0 0 0 0 0 0 0 0 0.25 0"/>
<feBlend mode="normal" in2="BackgroundImageFix" result="effect1_dropShadow_2002_771"/>
<feBlend mode="normal" in="SourceGraphic" in2="effect1_dropShadow_2002_771" result="shape"/>
</filter>
<filter id="filter1_d_2002_771" x="12.2234" y="9.44667" width="99.619" height="99.6187" filterUnits="userSpaceOnUse" color-interpolation-filters="sRGB">
<feFlood flood-opacity="0" result="BackgroundImageFix"/>
<feColorMatrix in="SourceAlpha" type="matrix" values="0 0 0 0 0 0 0 0 0 0 0 0 0 0 0 0 0 0 127 0" result="hardAlpha"/>
<feOffset dy="4"/>
<feGaussianBlur stdDeviation="10.65"/>
<feComposite in2="hardAlpha" operator="out"/>
<feColorMatrix type="matrix" values="0 0 0 0 0 0 0 0 0 0 0 0 0 0 0 0 0 0 0.25 0"/>
<feBlend mode="normal" in2="BackgroundImageFix" result="effect1_dropShadow_2002_771"/>
<feBlend mode="normal" in="SourceGraphic" in2="effect1_dropShadow_2002_771" result="shape"/>
</filter>
<filter id="filter2_d_2002_771" x="15.297" y="60.9287" width="93.4717" height="73.4932" filterUnits="userSpaceOnUse" color-interpolation-filters="sRGB">
<feFlood flood-opacity="0" result="BackgroundImageFix"/>
<feColorMatrix in="SourceAlpha" type="matrix" values="0 0 0 0 0 0 0 0 0 0 0 0 0 0 0 0 0 0 127 0" result="hardAlpha"/>
<feOffset dy="4"/>
<feGaussianBlur stdDeviation="10.65"/>
<feComposite in2="hardAlpha" operator="out"/>
<feColorMatrix type="matrix" values="0 0 0 0 0 0 0 0 0 0 0 0 0 0 0 0 0 0 0.25 0"/>
<feBlend mode="normal" in2="BackgroundImageFix" result="effect1_dropShadow_2002_771"/>
<feBlend mode="normal" in="SourceGraphic" in2="effect1_dropShadow_2002_771" result="shape"/>
</filter>
<clipPath id="clip0_2002_771">
<rect width="128" height="128" fill="white"/>
</clipPath>
</defs>
</svg>
